# xmcd CD database file
#
# Track frame offsets:
#	150
#	28037
#	54548
#	74435
#	110434
#	122159
#	155178
#	184221
#	208361
#	230953
#
# Disc length: 3284 seconds
#
# Revision: 0
# Processed by: cddbd v1.5.2PL0 Copyright (c) Steve Scherf et al.
# Submitted via: CDex 1.70beta2
#
DISCID=9f0cd20a
DTITLE=Rez Abbasi Acoustic Quartet - Natural Selection
DYEAR=2010
DGENRE=Jazz
TTITLE0=Lament
TTITLE1=Pakistani Minor
TTITLE2=Personal Mountains
TTITLE3=Up On The Hill
TTITLE4=When Light Falls
TTITLE5=Bees
TTITLE6=Blu Vindaloo
TTITLE7=New Aesthetic
TTITLE8=Punjab
TTITLE9=Ain't No Sunshine
EXTD=YEAR: 2010
EXTT0=
EXTT1=
EXTT2=
EXTT3=
EXTT4=
EXTT5=
EXTT6=
EXTT7=
EXTT8=
EXTT9=
PLAYORDER=
